<svg xmlns="http://www.w3.org/2000/svg" viewBox="0 0 1100 200" preserveAspectRatio="xMidYMid slice">
  <defs>
    <linearGradient id="sky" x1="0%" y1="0%" x2="0%" y2="100%">
      <stop offset="0%" style="stop-color:#87CEEB"/>
      <stop offset="100%" style="stop-color:#E0F0FF"/>
    </linearGradient>
  </defs>
  <!-- Obloha -->
  <rect width="1100" height="200" fill="url(#sky)"/>
  <!-- Hory -->
  <polygon points="0,160 100,80 200,130 350,60 500,120 600,70 750,110 900,50 1000,100 1100,80 1100,200 0,200" fill="#8FBC8F" opacity="0.5"/>
  <polygon points="0,180 150,110 300,150 450,100 600,140 750,90 900,130 1050,100 1100,120 1100,200 0,200" fill="#6DB356" opacity="0.7"/>
  <!-- Louka -->
  <rect y="160" width="1100" height="40" fill="#7EC850"/>
  <!-- Stromy -->
  <circle cx="100" cy="140" r="20" fill="#4A7C3F"/>
  <rect x="97" y="150" width="6" height="15" fill="#8B6914"/>
  <circle cx="300" cy="135" r="25" fill="#3A6230"/>
  <rect x="297" y="150" width="6" height="15" fill="#8B6914"/>
  <circle cx="500" cy="138" r="22" fill="#4A7C3F"/>
  <rect x="497" y="150" width="6" height="15" fill="#8B6914"/>
  <circle cx="700" cy="140" r="18" fill="#3A6230"/>
  <rect x="697" y="150" width="6" height="15" fill="#8B6914"/>
  <circle cx="900" cy="135" r="23" fill="#4A7C3F"/>
  <rect x="897" y="150" width="6" height="15" fill="#8B6914"/>
  <!-- Slunce -->
  <circle cx="950" cy="40" r="30" fill="#FFD700" opacity="0.9"/>
  <!-- Oblaka -->
  <ellipse cx="200" cy="35" rx="50" ry="15" fill="white" opacity="0.8"/>
  <ellipse cx="230" cy="30" rx="35" ry="12" fill="white" opacity="0.8"/>
  <ellipse cx="600" cy="45" rx="45" ry="13" fill="white" opacity="0.7"/>
  <ellipse cx="630" cy="40" rx="30" ry="10" fill="white" opacity="0.7"/>
</svg>
